<?xml version="1.0" encoding="UTF-8" standalone="no"?><!DOCTYPE svg PUBLIC "-//W3C//DTD SVG 1.1//EN" "http://www.w3.org/Graphics/SVG/1.1/DTD/svg11.dtd"><svg width="100%" height="100%" viewBox="0 0 2715 807" version="1.1" xmlns="http://www.w3.org/2000/svg" xmlns:xlink="http://www.w3.org/1999/xlink" xml:space="preserve" xmlns:serif="http://www.serif.com/" style="fill-rule:evenodd;clip-rule:evenodd;stroke-linecap:round;stroke-linejoin:round;stroke-miterlimit:2;"><g><path d="M401.393,797.802l-393.06,-393.059l393.06,-393.06l122.197,121.929l-279.314,271.131l279.314,271.131l-122.197,121.928Z" style="fill:#fff;fill-rule:nonzero;stroke:#000;stroke-width:16.67px;"/><path d="M1012.49,797.802c-60.123,0 -115.72,-9.819 -166.791,-29.459c-51.071,-19.639 -95.334,-47.243 -132.789,-82.812c-37.455,-35.568 -66.582,-77.333 -87.381,-125.296c-20.798,-47.962 -31.198,-100.419 -31.198,-157.372c0,-56.952 10.4,-109.31 31.198,-157.073c20.799,-47.764 49.952,-89.492 87.458,-125.186c37.506,-35.693 81.712,-63.328 132.618,-82.905c50.906,-19.577 106.415,-29.366 166.527,-29.366c60.362,0 115.871,9.749 166.527,29.247c50.656,19.497 94.692,47.021 132.107,82.573c37.415,35.551 66.522,77.285 87.321,125.202c20.799,47.917 31.198,100.442 31.198,157.577c0,57.134 -10.399,109.736 -31.198,157.806c-20.799,48.071 -49.906,89.85 -87.321,125.339c-37.415,35.489 -81.451,62.982 -132.107,82.479c-50.656,19.498 -106.046,29.246 -166.169,29.246Zm-0.375,-149.802c34.108,-0 65.604,-5.933 94.49,-17.799c28.885,-11.865 54.094,-28.692 75.626,-50.479c21.532,-21.788 38.307,-47.642 50.326,-77.561c12.019,-29.92 18.029,-63.019 18.029,-99.298c-0,-36.267 -5.984,-69.275 -17.952,-99.024c-11.968,-29.749 -28.729,-55.529 -50.284,-77.34c-21.555,-21.81 -46.78,-38.656 -75.677,-50.539c-28.897,-11.883 -60.405,-17.824 -94.524,-17.824c-34.108,0 -65.67,5.947 -94.686,17.841c-29.016,11.894 -54.338,28.76 -75.967,50.599c-21.628,21.839 -38.446,47.65 -50.454,77.433c-12.007,29.783 -18.011,62.729 -18.011,98.837c-0,36.12 5.995,69.136 17.986,99.05c11.99,29.914 28.78,55.842 50.369,77.783c21.588,21.941 46.913,38.813 75.975,50.616c29.062,11.803 60.646,17.705 94.754,17.705Z" style="fill:#fff;fill-rule:nonzero;stroke:#000;stroke-width:16.67px;"/><path d="M1793.18,797.802c-60.942,0 -119.48,-8.151 -175.614,-24.455c-56.134,-16.304 -101.283,-37.413 -135.448,-63.326l59.89,-133.675c32.415,23.288 71.1,42.393 116.056,57.316c44.956,14.923 90.285,22.384 135.985,22.384c35.267,0 63.613,-3.503 85.037,-10.51c21.424,-7.007 37.165,-16.673 47.223,-28.999c10.059,-12.326 15.088,-26.365 15.088,-42.117c0,-20.401 -8.078,-36.688 -24.234,-48.861c-16.156,-12.172 -37.33,-22.083 -63.522,-29.732c-26.191,-7.649 -55.077,-14.894 -86.656,-21.736c-31.579,-6.842 -63.229,-15.244 -94.95,-25.206c-31.721,-9.962 -60.677,-22.978 -86.869,-39.049c-26.192,-16.071 -47.363,-37.307 -63.513,-63.709c-16.151,-26.402 -24.226,-59.97 -24.226,-100.704c0,-43.325 11.738,-82.911 35.213,-118.758c23.476,-35.847 59.058,-64.53 106.748,-86.051c47.689,-21.52 107.739,-32.281 180.148,-32.281c47.69,0 94.877,5.677 141.56,17.032c46.684,11.354 87.83,28.084 123.438,50.189l-55.083,133.914c-35.187,-20.23 -70.75,-35.184 -106.688,-44.862c-35.937,-9.678 -70.852,-14.517 -104.744,-14.517c-34.392,0 -62.374,3.938 -83.945,11.815c-21.572,7.876 -37.205,18.304 -46.9,31.283c-9.695,12.98 -14.542,27.562 -14.542,43.746c-0,20.117 8.078,36.19 24.234,48.221c16.156,12.03 37.33,21.688 63.522,28.973c26.191,7.286 55.148,14.386 86.869,21.302c31.721,6.916 63.371,15.247 94.95,24.993c31.579,9.746 60.464,22.543 86.656,38.392c26.192,15.85 47.366,36.901 63.522,63.155c16.156,26.255 24.234,59.385 24.234,99.392c-0,42.609 -11.849,81.834 -35.546,117.675c-23.697,35.841 -59.427,64.596 -107.191,86.264c-47.763,21.668 -107.997,32.502 -180.702,32.502Z" style="fill:#fff;fill-rule:nonzero;stroke:#000;stroke-width:16.67px;"/><path d="M2313.02,794.452l-122.198,-121.928l279.314,-271.131l-279.314,-271.131l122.198,-121.929l393.072,393.06l-393.072,393.059Z" style="fill:#fff;fill-rule:nonzero;stroke:#000;stroke-width:16.67px;"/></g></svg>